<?xml version="1.0" encoding="UTF-8" standalone="no"?><svg xmlns="http://www.w3.org/2000/svg" xmlns:xlink= "http://www.w3.org/1999/xlink" width="600" height="390" aria-label="A chart." style="overflow: hidden;"><defs id="_ABSTRACT_RENDERER_ID_32"><filter id="_ABSTRACT_RENDERER_ID_33"><feGaussianBlur in="SourceAlpha" stdDeviation="2"></feGaussianBlur><feOffset dx="1" dy="1"></feOffset><feComponentTransfer><feFuncA type="linear" slope="0.1"></feFuncA></feComponentTransfer><feMerge><feMergeNode></feMergeNode><feMergeNode in="SourceGraphic"></feMergeNode></feMerge></filter></defs><rect x="0" y="0" width="600" height="390" stroke="none" stroke-width="0" fill="#ffffff"></rect><g><text text-anchor="start" x="115" y="52.05" font-family="Arial" font-size="13" font-weight="bold" stroke="none" stroke-width="0" fill="#000000">72% originate from just five countries</text><rect x="115" y="41" width="371" height="13" stroke="none" stroke-width="0" fill-opacity="0" fill="#ffffff"></rect></g><g><rect x="115" y="75" width="121" height="114" stroke="none" stroke-width="0" fill-opacity="0" fill="#ffffff"></rect><g column-id="Syrian Arab Republic"><rect x="115" y="75" width="121" height="30" stroke="none" stroke-width="0" fill-opacity="0" fill="#ffffff"></rect><g><text text-anchor="start" x="133" y="86.05" font-family="Arial" font-size="13" stroke="none" stroke-width="0" fill="#222222">Syrian Arab</text><text text-anchor="start" x="133" y="103.05" font-family="Arial" font-size="13" stroke="none" stroke-width="0" fill="#222222">Republic</text></g><circle cx="121.5" cy="81.5" r="6.5" stroke="none" stroke-width="0" fill="#3366cc"></circle></g><g column-id="Venezuela"><rect x="115" y="113" width="121" height="13" stroke="none" stroke-width="0" fill-opacity="0" fill="#ffffff"></rect><g><text text-anchor="start" x="133" y="124.05" font-family="Arial" font-size="13" stroke="none" stroke-width="0" fill="#222222">Venezuela</text></g><circle cx="121.5" cy="119.5" r="6.5" stroke="none" stroke-width="0" fill="#dc3912"></circle></g><g column-id="Ukraine"><rect x="115" y="134" width="121" height="13" stroke="none" stroke-width="0" fill-opacity="0" fill="#ffffff"></rect><g><text text-anchor="start" x="133" y="145.05" font-family="Arial" font-size="13" stroke="none" stroke-width="0" fill="#222222">Ukraine</text></g><circle cx="121.5" cy="140.5" r="6.5" stroke="none" stroke-width="0" fill="#ff9900"></circle></g><g column-id="Afghanistan"><rect x="115" y="155" width="121" height="13" stroke="none" stroke-width="0" fill-opacity="0" fill="#ffffff"></rect><g><text text-anchor="start" x="133" y="166.05" font-family="Arial" font-size="13" stroke="none" stroke-width="0" fill="#222222">Afghanistan</text></g><circle cx="121.5" cy="161.5" r="6.5" stroke="none" stroke-width="0" fill="#109618"></circle></g><g column-id="South Sudan"><rect x="115" y="176" width="121" height="13" stroke="none" stroke-width="0" fill-opacity="0" fill="#ffffff"></rect><g><text text-anchor="start" x="133" y="187.05" font-family="Arial" font-size="13" stroke="none" stroke-width="0" fill="#222222">South Sudan</text></g><circle cx="121.5" cy="182.5" r="6.5" stroke="none" stroke-width="0" fill="#990099"></circle></g></g><g><path d="M486,184.6L486,207.4A114,91.2,0,0,1,481.3422331961052,233.20264841834404L481.3422331961052,210.40264841834403A114,91.2,0,0,0,486,184.6" stroke="#264d99" stroke-width="1" fill="#264d99"></path><path d="M372,184.6L372,207.4L481.3422331961052,233.20264841834404L481.3422331961052,210.40264841834403" stroke="#264d99" stroke-width="1" fill="#264d99"></path><path d="M372,184.6L372,93.39999999999999A114,91.2,0,0,1,481.3422331961052,210.40264841834403L372,184.6A0,0,0,0,0,372,184.6" stroke="#3366cc" stroke-width="1" fill="#3366cc"></path><text text-anchor="start" x="434.0859403192157" y="148.00175413113567" font-family="Arial" font-size="13" stroke="none" stroke-width="0" fill="#ffffff">6.8</text></g><g><path d="M372,184.6L372,207.4L302.49829540443034,135.1094172293617L302.49829540443034,112.30941722936169" stroke="#730073" stroke-width="1" fill="#730073"></path><path d="M372,184.6L302.49829540443034,112.30941722936169A114,91.2,0,0,1,372,93.39999999999999L372,184.6A0,0,0,0,0,372,184.6" stroke="#990099" stroke-width="1" fill="#990099"></path><text text-anchor="start" x="334.02631866508045" y="123.18761390656768" font-family="Arial" font-size="13" stroke="none" stroke-width="0" fill="#ffffff">2.4</text></g><g><path d="M372,184.6L372,207.4L259.28436104822333,193.74869124064134L259.28436104822333,170.94869124064132" stroke="#0c7112" stroke-width="1" fill="#0c7112"></path><path d="M372,184.6L259.28436104822333,170.94869124064132A114,91.2,0,0,1,302.4982954044302,112.30941722936174L372,184.6A0,0,0,0,0,372,184.6" stroke="#109618" stroke-width="1" fill="#109618"></path><text text-anchor="start" x="286.3765918040834" y="154.1738458182499" font-family="Arial" font-size="13" stroke="none" stroke-width="0" fill="#ffffff">2.8</text></g><g><path d="M344.25305977285274,273.05738339528205L344.25305977285274,295.85738339528206A114,91.2,0,0,1,258,207.4L258,184.6A114,91.2,0,0,0,344.25305977285274,273.05738339528205" stroke="#bf7300" stroke-width="1" fill="#bf7300"></path><path d="M372,184.6L372,207.4L344.25305977285274,295.85738339528206L344.25305977285274,273.05738339528205" stroke="#bf7300" stroke-width="1" fill="#bf7300"></path><path d="M372,184.6L344.25305977285274,273.05738339528205A114,91.2,0,0,1,259.28436104822333,170.9486912406412L372,184.6A0,0,0,0,0,372,184.6" stroke="#ff9900" stroke-width="1" fill="#ff9900"></path><text text-anchor="start" x="289.0511893838612" y="227.26560460196336" font-family="Arial" font-size="13" stroke="none" stroke-width="0" fill="#ffffff">5.4</text></g><g><path d="M481.3422331961052,210.40264841834403L481.3422331961052,233.20264841834404A114,91.2,0,0,1,344.25305977285274,295.857383395282L344.25305977285274,273.05738339528205A114,91.2,0,0,0,481.3422331961052,210.40264841834403" stroke="#a52b0e" stroke-width="1" fill="#a52b0e"></path><path d="M372,184.6L481.3422331961052,210.40264841834403A114,91.2,0,0,1,344.25305977285274,273.05738339528205L372,184.6A0,0,0,0,0,372,184.6" stroke="#dc3912" stroke-width="1" fill="#dc3912"></path><text text-anchor="start" x="407.23795329952566" y="249.10420556490692" font-family="Arial" font-size="13" stroke="none" stroke-width="0" fill="#ffffff">5.6</text></g><g></g></svg>